<svg width="30" height="30" viewBox="0 0 30 30" fill="none" xmlns="http://www.w3.org/2000/svg">
<g clip-path="url(#clip0_3507_44985)">
<path d="M20.15 2.41134L6.53625 9.38134L1.125 6.71884L14.4987 0.115093C14.6503 0.0398734 14.8171 0.000732422 14.9862 0.000732422C15.1554 0.000732422 15.3222 0.0398734 15.4737 0.115093L20.15 2.41134ZM28.86 6.71884L15.0075 13.5813L9.82 11.0251L9.07 10.6438L22.6987 3.67509L23.4488 4.05509L28.86 6.71884ZM13.8975 15.5588L13.8825 30.0001L0.614999 23.0763C0.429765 22.9779 0.274725 22.831 0.166414 22.6514C0.0581044 22.4718 0.000587544 22.2661 -9.53674e-07 22.0563L-9.53674e-07 8.69634L5.6225 11.4663V16.3363C5.6225 16.9601 6.1325 17.4776 6.7475 17.4776C7.3625 17.4776 7.8725 16.9601 7.8725 16.3363V12.5926L8.6225 12.9576L13.8975 15.5588ZM29.985 8.71134L16.1475 15.5438L16.1325 29.9851L30 22.7438L29.985 8.71134Z" fill="#4361EE"/>
</g>
<defs>
<clipPath id="clip0_3507_44985">
<rect width="30" height="30" fill="white"/>
</clipPath>
</defs>
</svg>
